<svg width="121" height="188" viewBox="0 0 121 188" fill="none" xmlns="http://www.w3.org/2000/svg">
<g clip-path="url(#clip0)">
<path d="M121 175.906C121 182.567 115.7 188 109.133 188H11.8666C5.30043 188 0 182.607 0 175.906V12.0945C0 5.39296 5.30043 0 11.8666 0H109.173C115.739 0 121.04 5.39296 121.04 12.0945V175.906H121Z" fill="#DB9D7A"/>
<path d="M11.8666 185.383C6.72436 185.383 2.6106 181.1 2.6106 175.906V12.0945C2.6106 6.86016 6.72436 2.61717 11.8666 2.61717H109.173C114.315 2.61717 118.429 6.89981 118.429 12.0945V175.906C118.429 181.1 114.315 185.383 109.173 185.383V184.391V183.4C113.168 183.4 116.451 180.069 116.451 175.906V12.0945C116.451 7.93082 113.168 4.59988 109.173 4.59988H11.8666C7.87146 4.59988 4.58837 7.93082 4.58837 12.0945V175.906C4.58837 180.069 7.87146 183.4 11.8666 183.4H109.173V184.391V185.383H11.8666Z" fill="#010101"/>
<path d="M28.3612 93.5043C28.3612 75.5807 42.8385 61.0673 60.7175 61.0673C78.5966 61.0673 93.0739 75.5807 93.0739 93.5043C93.0739 111.428 78.5966 125.941 60.7175 125.941C42.8385 125.902 28.3612 111.388 28.3612 93.5043ZM30.339 93.5043C30.339 101.911 33.7407 109.525 39.2389 115.036C44.7371 120.548 52.3318 123.959 60.7175 123.959C69.1033 123.959 76.6979 120.548 82.1961 115.036C87.6943 109.525 91.0961 101.911 91.0961 93.5043C91.0961 85.0977 87.6943 77.4841 82.1961 71.9721C76.6979 66.4602 69.1033 63.05 60.7175 63.05C52.3318 63.05 44.7371 66.4602 39.2389 71.9721C33.7407 77.4841 30.339 85.0977 30.339 93.5043Z" fill="#010101"/>
<path d="M59.8077 12.0152C59.8077 28.5509 59.8077 45.1263 59.8077 61.6621C59.8077 62.4155 60.9944 62.4155 60.9944 61.6621C60.9944 45.1263 60.9944 28.5509 60.9944 12.0152C60.9944 11.2618 59.8077 11.2618 59.8077 12.0152Z" fill="#010101"/>
<path d="M60.0451 12.1738C61.1131 18.5978 67.8771 21.9684 72.2282 26.0131C77.1726 30.613 80.6535 41.6368 73.3753 45.9194C70.1317 47.8625 65.5433 45.3246 64.1984 42.1523C63.0513 39.4162 64.4357 35.8473 66.9673 34.4197C68.5495 33.5474 70.2504 34.2215 71.4766 35.2921C72.9402 36.5611 73.1379 38.3852 72.3864 40.1299C71.6744 41.7161 69.0637 42.8661 67.9562 41.042C67.4024 40.1299 68.3913 37.3542 69.3011 38.9403C69.6966 39.6144 70.7251 39.0196 70.3295 38.3455C69.1033 36.1645 67.1255 37.4731 66.6508 39.4558C65.9784 42.2316 68.8264 43.6988 71.1997 42.8661C73.8895 41.9144 74.5619 38.3058 73.5335 35.9663C72.3468 33.2698 68.9055 32.1991 66.374 33.3887C63.7633 34.618 62.458 37.9886 62.6557 40.7247C62.8931 44.1747 66.0971 46.7522 69.2615 47.5849C72.3468 48.4176 75.1553 46.6729 76.8561 44.1747C79.1108 40.8834 78.9921 36.4025 77.9241 32.7146C76.5001 28.1544 73.1775 25.101 69.5779 22.2063C66.1366 19.4305 61.9833 16.5358 61.1922 11.8566C61.0735 11.1031 59.9264 11.4204 60.0451 12.1738Z" fill="#010101"/>
<path d="M72.2677 63.8034L88.6436 29.7802L89.7116 30.2957L73.3357 64.3189L72.2677 63.8034Z" fill="#010101"/>
<path d="M81.7214 69.8705L100.708 47.6642L101.618 48.4176L82.6312 70.6636L81.7214 69.8705Z" fill="#010101"/>
<path d="M88.2877 78.1582L105.85 68.5619L106.444 69.5929L88.8415 79.1892L88.2877 78.1582Z" fill="#010101"/>
<path d="M88.4064 30.375C90.1468 34.9352 96.1197 43.6195 90.1864 47.4263C88.5646 48.4573 85.0046 49.1314 84.965 46.316C84.965 45.0074 85.9144 42.6281 87.5361 43.5005C88.6041 44.0953 88.8019 45.4436 87.4175 45.6815C86.6659 45.8005 86.9824 46.9504 87.7339 46.8315C90.7401 46.3556 89.6721 42.4299 87.1406 42.1126C84.0948 41.7161 82.4731 47.347 84.965 48.9331C87.813 50.7176 91.729 48.5366 93.1135 45.8798C95.7637 40.8437 91.2544 34.6577 89.5139 30.0578C89.2766 29.344 88.1295 29.6613 88.4064 30.375Z" fill="#010101"/>
<path d="M100.392 48.1004C99.1259 52.621 102.725 57.2605 100.748 61.6621C99.7984 63.8034 97.3459 64.8741 95.4077 63.2879C94.7353 62.7328 94.3793 61.9397 94.577 61.0673C94.6957 60.4725 95.2495 60.0363 95.6846 59.719C97.069 58.7277 99.0864 60.6707 97.2273 61.4242C96.5153 61.7017 96.8317 62.8517 97.5437 62.5741C100.273 61.4638 99.0864 57.9346 96.2779 58.2518C93.1926 58.5691 92.6388 62.2173 94.577 64.081C97.069 66.4602 100.313 64.7155 101.776 62.2172C104.268 57.8553 100.273 52.8589 101.539 48.3383C101.737 47.6642 100.589 47.347 100.392 48.1004Z" fill="#010101"/>
<path d="M105.138 69.2757C104.901 73.1618 106.641 77.722 103.912 81.0133C103.042 82.0839 101.855 82.7977 100.51 82.877C98.7698 82.9563 97.6623 81.3305 97.86 79.7444C98.0183 78.5944 99.1654 76.9686 100.471 77.1668C101.974 77.4048 101.816 79.1892 100.589 79.7047C99.8774 79.9823 100.194 81.1322 100.906 80.8547C102.963 80.0219 103.675 76.9686 101.064 76.1358C98.1765 75.1841 95.7636 79.2288 96.9107 81.7271C98.6907 85.5338 103.002 84.027 105.099 81.4495C107.868 78.0789 106.088 73.2014 106.325 69.2757C106.404 68.4826 105.217 68.5222 105.138 69.2757Z" fill="#010101"/>
<path d="M71.0811 16.9323C74.2455 21.7701 79.625 25.8148 80.3766 31.8422C80.4557 32.4767 81.3655 32.7146 81.5237 32.0008C82.2357 29.0268 85.0441 26.7269 87.101 24.6648C89.237 22.5235 91.4916 20.2632 92.6388 17.4081C95.0121 11.5393 87.3383 3.76714 82.117 8.80321C79.8228 11.0238 79.3481 15.2272 81.3259 17.765C82.829 19.7081 85.8352 19.4305 87.6548 18.2012C89.7512 16.734 89.9094 13.9186 88.2877 12.0548C87.4965 11.1428 86.2308 10.8652 85.0837 11.1031C83.6597 11.3807 83.2246 12.9272 83.1059 14.1565C82.829 16.4961 85.677 17.0513 86.8637 15.4254C87.2988 14.791 86.2703 14.1962 85.8352 14.8306C85.321 14.5927 84.8068 14.3944 84.2926 14.1565C84.2926 13.6014 84.4903 13.0858 84.8068 12.61C85.3606 11.8962 86.3099 12.1738 86.9428 12.491C88.169 13.1255 88.4854 14.8703 87.9712 16.0202C87.1801 17.8443 84.6486 18.4391 82.9872 17.6461C80.0601 16.2185 81.2864 11.5393 82.9477 9.6756C85.6374 6.62223 89.2765 9.27906 91.017 11.8962C95.9219 19.3512 81.8797 25.3786 80.3766 31.7629C80.7721 31.8026 81.1677 31.8819 81.5237 31.9215C80.7326 25.5372 75.3926 21.4925 72.0699 16.4168C71.7139 15.6634 70.6855 16.2582 71.0811 16.9323Z" fill="#010101"/>
<path d="M71.5952 17.2099C75.9068 17.3685 76.8957 12.61 75.2739 9.39801C74.4037 7.65323 72.4259 6.4636 70.4481 6.74118C68.4308 7.01876 66.0971 8.52562 65.9784 10.7859C65.7806 14.2358 69.8548 16.7737 71.7139 13.1651C72.2281 12.1738 72.4259 10.6669 71.4766 9.87386C71.0415 9.51697 70.4086 9.43766 69.8548 9.55662C68.7077 9.75489 68.589 10.5876 68.4308 11.6583C68.3122 12.4117 69.5384 12.4117 69.6175 11.6583C69.8153 10.3101 70.9624 10.5083 70.9624 11.6186C70.9624 12.3721 70.4877 13.0858 69.9735 13.5617C69.1824 14.3151 68.3122 13.6013 67.7584 12.9272C66.4926 11.2617 67.3628 9.51697 68.945 8.52562C74.5223 4.9964 77.6077 16.3375 71.6348 16.0995C70.8437 15.9806 70.8437 17.1702 71.5952 17.2099Z" fill="#010101"/>
<path d="M91.7686 26.8458C96.1592 31.6836 96.9503 39.4162 96.9899 45.6419C96.9899 46.316 97.9788 46.4349 98.137 45.8005C99.9961 39.5748 107.353 37.949 111.467 33.6267C116.253 28.6303 114.473 19.2719 107.828 16.8926C104.743 15.7823 101.539 17.8047 100.352 20.6994C99.4819 22.8804 99.3236 26.132 101.499 27.6786C103.912 29.3837 106.997 28.3527 108.342 25.8545C109.727 23.3166 108.105 20.5012 105.217 20.4615C101.974 20.4219 102.053 26.1717 105.692 24.7838C106.404 24.5062 106.088 23.3563 105.376 23.6338C103.833 24.189 103.517 22.5632 104.664 21.8097C106.444 20.5805 107.907 23.158 107.551 24.6648C106.721 28.0354 102.013 28.1147 101.064 24.8631C100.352 22.4046 101.816 19.5495 103.912 18.3202C108.145 15.7823 112.219 21.2942 112.852 24.9028C114.75 35.9663 99.6796 36.4818 96.9899 45.5229C97.3854 45.5625 97.781 45.6419 98.137 45.6815C98.0974 39.0989 97.1877 31.1285 92.5597 26.0527C92.085 25.4183 91.2543 26.2907 91.7686 26.8458Z" fill="#010101"/>
<path d="M92.2036 26.6475C97.0294 22.7614 96.5547 15.822 99.3632 10.7463C100.985 7.85151 104.861 5.98777 107.63 8.48598C109.41 10.0721 108.303 12.61 106.285 13.2445C105.217 13.5617 103.872 13.4824 103.2 12.5307C102.923 11.8962 102.923 11.3014 103.279 10.7066C104.11 8.96183 104.11 11.3807 104.664 11.1031C103.991 11.46 104.584 12.4514 105.257 12.1342C106.839 11.3411 106.206 9.27906 104.664 8.84286C102.567 8.24805 101.618 11.0238 101.934 12.61C102.409 14.8306 105.376 14.791 107.037 14.2755C109.292 13.6014 110.122 11.2618 109.45 9.1601C108.817 7.21705 106.72 6.34466 104.861 6.18604C102.369 5.94812 100.233 7.49462 98.8094 9.43767C95.1703 14.3548 96.3965 21.8097 91.3334 25.8545C90.7401 26.2907 91.6103 27.1234 92.2036 26.6475Z" fill="#010101"/>
<path d="M102.884 67.7688C105.02 64.0413 106.246 60.1949 106.444 55.9123C106.562 52.4623 105.692 48.8538 106.839 45.4832C108.105 41.7558 113.999 42.5092 113.405 46.7125C113.208 47.9814 112.377 49.3297 111.032 49.4486C110.043 49.5279 108.738 48.6556 108.896 47.5849C109.015 46.8711 110.399 45.5229 110.597 47.0694C110.676 47.8228 111.863 47.8228 111.784 47.0694C111.23 42.6281 105.138 47.5452 108.896 49.9245C112.535 52.2641 115.541 47.8625 114.355 44.4126C113.643 42.3902 111.428 41.6764 109.45 41.9144C107.116 42.1919 105.85 44.1747 105.376 46.316C104.743 49.0124 105.217 51.9072 105.297 54.683C105.415 59.2035 104.11 63.2879 101.895 67.2137C101.46 67.8481 102.488 68.4429 102.884 67.7688Z" fill="#010101"/>
<path d="M102.369 68.2447C107.472 68.1257 114.473 64.4775 113.405 58.3312C113.049 56.2691 110.913 55.2778 109.133 56.5467C107.432 57.776 107.314 60.3932 109.371 61.1862C110.083 61.4638 110.399 60.3139 109.687 60.0363C107.551 59.2035 111.309 55.0399 112.179 58.2915C112.496 59.4018 112.1 60.7897 111.704 61.8604C110.478 65.3499 105.652 66.9361 102.33 67.0551C101.578 67.0947 101.578 68.2843 102.369 68.2447Z" fill="#010101"/>
<path d="M92.3619 94.0991C99.2841 94.0991 106.206 94.0991 113.128 94.0991C113.88 94.0991 113.88 92.9095 113.128 92.9095C106.206 92.9095 99.2841 92.9095 92.3619 92.9095C91.6103 92.9095 91.6103 94.0991 92.3619 94.0991Z" fill="#010101"/>
<path d="M113.484 92.9095C110.122 92.275 109.885 87.9131 106.918 86.5649C105.415 85.8907 102.211 85.4942 101.183 87.239C100.075 89.0631 101.46 91.6406 103.635 91.6009C105.652 91.5613 106.562 89.3803 104.861 88.1907C104.228 87.7545 103.635 88.7855 104.268 89.2217C105.415 90.0148 103.319 90.6889 102.607 90.1337C101.816 89.4993 101.816 88.0717 102.646 87.5562C103.793 86.8821 105.771 87.3183 106.839 87.9131C108.263 88.7062 109.015 90.7285 109.964 92.0371C110.795 93.1474 111.823 93.9009 113.168 94.1388C113.92 94.2181 114.236 93.0681 113.484 92.9095Z" fill="#010101"/>
<path d="M113.128 66.8568C113.128 73.9945 113.128 81.1323 113.128 88.27C113.128 89.0234 114.315 89.0234 114.315 88.27C114.315 81.1323 114.315 73.9945 114.315 66.8568C114.315 66.1034 113.128 66.1034 113.128 66.8568Z" fill="#010101"/>
<path d="M110.953 68.4826C110.953 75.1445 110.953 81.846 110.953 88.5079C110.953 89.2613 112.14 89.2613 112.14 88.5079C112.14 81.846 112.14 75.1445 112.14 68.4826C112.14 67.6895 110.953 67.6895 110.953 68.4826Z" fill="#010101"/>
<path d="M108.54 69.6722C108.54 74.8273 108.54 79.9426 108.54 85.0977C108.54 85.8511 109.727 85.8511 109.727 85.0977C109.727 79.9426 109.727 74.8273 109.727 69.6722C109.727 68.9188 108.54 68.9188 108.54 69.6722Z" fill="#010101"/>
<path d="M113.761 33.6267C113.761 35.8473 113.761 38.0283 113.761 40.2489C113.761 41.0023 114.948 41.0023 114.948 40.2489C114.948 38.0283 114.948 35.8473 114.948 33.6267C114.948 32.8732 113.761 32.8732 113.761 33.6267Z" fill="#010101"/>
<path d="M111.349 35.8473C111.349 37.1955 111.349 38.5041 111.349 39.8523C111.349 40.6058 112.535 40.6058 112.535 39.8523C112.535 38.5041 112.535 37.1955 112.535 35.8473C112.535 35.0542 111.349 35.0542 111.349 35.8473Z" fill="#010101"/>
<path d="M108.738 37.2352C108.738 37.9886 108.738 38.7024 108.738 39.4558C108.738 40.2092 109.924 40.2092 109.924 39.4558C109.924 38.7024 109.924 37.9886 109.924 37.2352C109.924 36.4817 108.738 36.4817 108.738 37.2352Z" fill="#010101"/>
<path d="M113.959 9.79456C113.959 13.2841 113.959 16.734 113.959 20.2236C113.959 20.977 115.146 20.977 115.146 20.2236C115.146 16.734 115.146 13.2841 115.146 9.79456C115.146 9.04114 113.959 9.04114 113.959 9.79456Z" fill="#010101"/>
<path d="M111.546 7.21705C111.546 10.548 111.546 13.8789 111.546 17.2099C111.546 17.9633 112.733 17.9633 112.733 17.2099C112.733 13.8789 112.733 10.548 112.733 7.21705C112.733 6.42397 111.546 6.42397 111.546 7.21705Z" fill="#010101"/>
<path d="M91.5708 6.42396C91.5708 7.09808 91.5708 7.7722 91.5708 8.40666C91.5708 9.16009 92.7575 9.16009 92.7575 8.40666C92.7575 7.73254 92.7575 7.05842 92.7575 6.42396C92.7575 5.63088 91.5708 5.63088 91.5708 6.42396Z" fill="#010101"/>
<path d="M93.7859 5.98777C93.7859 7.45497 93.7859 8.92217 93.7859 10.3894C93.7859 11.1428 94.9725 11.1428 94.9725 10.3894C94.9725 8.92217 94.9725 7.45497 94.9725 5.98777C94.9725 5.23434 93.7859 5.23434 93.7859 5.98777Z" fill="#010101"/>
<path d="M96.1592 6.22569C96.1592 7.29635 96.1592 8.36701 96.1592 9.43767C96.1592 10.1911 97.3458 10.1911 97.3458 9.43767C97.3458 8.36701 97.3458 7.29635 97.3458 6.22569C97.3458 5.4326 96.1592 5.4326 96.1592 6.22569Z" fill="#010101"/>
<path d="M98.3348 43.6591C98.2161 40.9627 98.849 38.1076 99.9961 35.649C100.313 35.0146 100.55 34.3404 100.866 33.706C101.104 33.2301 101.42 32.7939 101.776 32.3974C102.33 32.675 102.884 32.9129 103.437 33.1905C103.398 33.587 103.319 33.9439 103.121 34.3008C102.844 35.0146 103.991 35.3318 104.268 34.618C105.376 31.9215 102.805 29.5423 100.629 31.8819C99.6005 32.9922 99.0468 34.6973 98.493 36.1249C97.5437 38.5041 96.9899 41.1213 97.1086 43.6591C97.1877 44.4126 98.3743 44.4126 98.3348 43.6591Z" fill="#010101"/>
<path d="M73.7708 64.6362C74.6015 62.0586 76.6979 58.1725 79.7041 57.8157C81.4841 57.5777 83.6597 59.0449 83.2245 60.988C82.9872 62.0983 81.6423 63.05 80.5743 62.8121C79.5063 62.5741 79.3086 61.3052 80.2579 60.7897C80.9303 60.3932 80.337 59.3622 79.6646 59.7587C77.9637 60.7501 78.0823 63.05 79.981 63.8431C82.1565 64.7551 84.8463 62.4155 84.4903 60.1156C84.0948 57.5381 80.8512 55.8329 78.4383 56.9036C75.5112 58.2518 73.6126 61.3449 72.6237 64.3189C72.3864 65.0327 73.5335 65.3499 73.7708 64.6362Z" fill="#010101"/>
<path d="M73.1775 64.4379C74.0478 61.6224 75.8278 58.8467 75.1949 55.7933C74.7202 53.4537 71.9118 52.1848 69.934 53.533C68.0749 54.8019 68.2727 57.8157 69.934 59.0846C71.6744 60.4328 72.782 58.1725 72.5842 56.745C72.4655 55.9916 71.3184 56.3088 71.4371 57.0622C71.6744 58.688 70.5669 58.2915 70.0922 57.4984C69.578 56.7053 69.8549 55.6743 70.2504 54.9606C71.5558 52.5417 74.0478 55.3174 74.206 56.9433C74.4433 59.4018 72.782 61.9 72.07 64.1603C71.7931 64.8344 72.9402 65.1517 73.1775 64.4379Z" fill="#010101"/>
<path d="M82.9872 70.1084C85.0837 68.3636 87.6152 65.7465 90.6214 66.5792C92.7574 67.174 93.153 69.7912 91.4125 70.9808C90.6214 71.536 89.593 71.3774 88.881 70.8222C88.0899 70.1877 88.2877 69.2757 89.3557 69.2757C90.1072 69.2757 90.1072 68.0861 89.3557 68.0861C87.457 68.0861 86.3495 69.9102 87.813 71.417C89.4743 73.1618 92.0059 72.6463 93.2716 70.7032C94.8143 68.3636 92.6783 65.9051 90.4632 65.2706C87.3383 64.4379 84.3321 67.4516 82.1566 69.236C81.5632 69.7515 82.4335 70.5843 82.9872 70.1084Z" fill="#010101"/>
<path d="M60.0451 11.8566C59.3331 16.1789 55.694 18.9943 52.4504 21.5718C49.0882 24.2683 45.9238 26.8855 44.0647 30.8905C41.4145 36.6007 42.2452 47.7435 50.5518 47.8228C53.8349 47.8228 57.2366 45.166 58.3046 42.1126C59.254 39.2972 58.0278 35.9663 55.8522 34.1025C53.5184 32.0802 50.5913 32.7939 48.5345 34.8559C46.4776 36.9179 46.9127 40.5265 49.0882 42.3506C51.2638 44.135 54.7447 42.8661 54.5864 39.9317C54.4678 37.7903 52.2131 36.0456 50.8682 38.3852C50.4727 39.0593 51.5011 39.6541 51.8967 38.98C52.846 37.2748 53.6371 40.1696 53.2416 41.0816C52.3318 43.2229 49.5233 41.4782 48.8113 40.1696C46.9522 36.8386 50.9078 32.8732 54.2304 34.4594C56.9598 35.768 57.9091 39.4955 56.9993 42.1919C55.8127 45.6418 50.9869 47.6246 47.8225 45.9591C44.6185 44.3333 43.6691 40.1696 43.7483 36.8783C43.8669 32.675 46.0425 28.8682 48.9696 26.0131C53.2811 21.8494 60.0451 18.6771 61.1526 12.1738C61.3109 11.4204 60.1637 11.1031 60.0451 11.8566Z" fill="#010101"/>
<path d="M31.5256 30.2957L32.5936 29.7802L48.9696 63.8034L47.9016 64.3189L31.5256 30.2957Z" fill="#010101"/>
<path d="M19.6194 48.4176L20.5292 47.6642L39.5158 69.8705L38.606 70.6636L19.6194 48.4176Z" fill="#010101"/>
<path d="M14.7938 69.5929L15.3872 68.5619L32.9498 78.1582L32.3564 79.1892L14.7938 69.5929Z" fill="#010101"/>
<path d="M31.6839 30.0578C29.983 34.5784 25.7506 40.3282 27.8866 45.3643C29.1128 48.2987 32.9101 50.5193 36.035 49.0521C38.8434 47.7039 37.2612 42.1523 34.3341 42.073C31.6839 41.9937 30.339 46.316 33.4639 46.8315C34.2154 46.9504 34.5319 45.8005 33.7803 45.6815C32.475 45.4832 32.5937 44.5712 33.3848 43.7385C34.8088 42.2713 35.8768 44.4919 36.1932 45.6419C36.9843 48.8935 33.187 48.4969 31.3674 47.5849C24.8408 44.2936 31.1697 34.7766 32.831 30.375C33.1079 29.6613 31.9608 29.344 31.6839 30.0578Z" fill="#010101"/>
<path d="M19.6986 48.4176C20.9249 52.8192 17.2858 57.4191 19.2635 61.7811C20.648 64.7948 23.852 66.4602 26.6999 64.1603C29.0337 62.2569 27.7284 59.1242 25.1573 58.3312C22.3488 57.4984 20.9644 61.5035 23.7333 62.6535C24.4453 62.931 24.7617 61.7811 24.0497 61.5035C22.3488 60.7897 23.7333 59.5604 24.6035 59.4811C25.3551 59.4018 26.1066 60.1156 26.5022 60.6707C27.0559 61.4638 26.6604 62.4552 26.1066 63.0897C24.2475 65.231 21.6369 63.6052 20.5293 61.6621C18.1955 57.5777 22.1115 52.4624 20.8853 48.1004C20.648 47.347 19.5009 47.6642 19.6986 48.4176Z" fill="#010101"/>
<path d="M14.8728 69.2757C15.1102 73.3204 13.4884 77.6823 15.9804 81.3305C17.9186 84.1063 21.9928 85.3752 24.0893 82.1236C25.6715 79.665 23.2982 75.6203 20.4106 76.0565C19.4217 76.2151 18.4724 77.3254 18.3933 78.3168C18.2746 79.665 19.1448 80.4185 20.2919 80.8943C21.0039 81.1719 21.3204 80.0219 20.6084 79.7444C19.4217 79.2685 19.2635 78.1185 20.2919 77.4048C21.439 76.572 22.5466 78.1185 23.0213 78.9513C23.7728 80.2599 23.2586 81.7667 22.0719 82.5598C20.5688 83.5908 18.7888 82.5201 17.6417 81.4891C14.2795 78.4754 16.2177 73.2014 16.02 69.3153C16.02 68.5222 14.8333 68.4826 14.8728 69.2757Z" fill="#010101"/>
<path d="M49.1277 16.2978C45.8051 21.3735 40.4651 25.4183 39.674 31.8026C40.0695 31.7629 40.4651 31.6836 40.8211 31.644C39.2389 24.9821 25.9482 19.9063 29.9829 12.1342C31.486 9.2394 34.9669 6.82051 37.894 9.2394C40.03 10.9842 40.9398 15.5444 38.4478 17.3685C36.8655 18.5581 34.3736 17.7254 33.3451 16.1789C32.6331 15.1082 32.9496 13.6807 33.7407 12.7686C34.2549 12.1738 35.046 11.9359 35.758 12.0945C36.3118 12.2928 36.6282 12.6893 36.7469 13.2445C37.1424 14.1962 36.6678 14.672 35.3229 14.672C34.8878 14.0375 33.8593 14.6324 34.2944 15.2668C36.1931 17.9236 39.0015 14.8306 37.6962 12.3721C36.3513 9.91352 32.91 10.7066 32.0398 13.2048C30.2202 18.3995 38.4478 21.5322 40.5442 16.4961C41.8891 13.2445 40.5046 9.19975 37.4589 7.49462C34.1758 5.63088 30.8531 8.52563 29.1127 11.1428C25.3549 16.8133 31.8816 22.3649 35.4811 26.0131C37.1424 27.6785 39.0806 29.5423 39.6344 31.9215C39.7926 32.6353 40.7024 32.3974 40.7815 31.7629C41.5331 25.6958 46.9126 21.6908 50.0771 16.853C50.5517 16.2582 49.5233 15.6634 49.1277 16.2978Z" fill="#010101"/>
<path d="M49.6421 16.0203C43.9856 16.2582 46.3194 5.31365 52.3318 8.44632C53.8745 9.27906 54.5469 10.9445 53.7163 12.491C53.2416 13.4031 52.2527 14.2358 51.3034 13.4824C50.7892 13.0859 50.5123 12.4117 50.3541 11.7773C50.0772 10.6273 51.4616 9.95318 51.6594 11.579C51.7385 12.3324 52.9647 12.3324 52.8461 11.579C52.7274 10.7066 52.6087 9.75491 51.6989 9.51699C51.1056 9.35837 50.4727 9.39802 49.919 9.71526C48.8114 10.3101 49.0487 11.9755 49.4443 12.8876C51.1452 16.6944 55.4963 14.3151 55.2985 10.7066C55.1798 8.60494 53.0834 7.17739 51.2243 6.7412C49.1674 6.26535 47.2687 7.37566 46.1612 9.04114C44.0648 12.1738 45.3701 17.3288 49.6421 17.1702C50.3936 17.1702 50.3936 15.9806 49.6421 16.0203Z" fill="#010101"/>
<path d="M28.6381 26.0131C24.0102 31.0888 23.1004 39.0593 23.0608 45.6418C23.4564 45.6022 23.8519 45.5229 24.2079 45.4832C21.4786 36.2835 6.80356 36.1249 8.34622 24.8631C8.86044 21.0167 12.3809 16.9719 16.5342 18.003C19.3031 18.6771 20.6875 22.3252 20.1337 24.8631C19.4217 28.1544 15.2684 27.7975 13.884 25.22C12.9742 23.5149 14.0818 21.3735 16.1386 21.6511C17.5231 21.8494 17.7208 24.3476 15.8222 23.6338C15.1102 23.3563 14.7937 24.5062 15.5057 24.7838C17.6813 25.5769 18.9866 23.7528 18.0768 21.7701C17.0089 19.4702 13.2906 20.5012 12.5786 22.5632C11.748 24.9821 13.6466 28.1544 16.2969 28.432C18.9866 28.6699 21.2017 27.163 21.4786 24.3873C21.7159 21.5718 20.3711 18.7564 17.9582 17.2892C14.3982 15.1875 10.4822 18.0426 8.62311 20.977C6.88267 23.6735 6.56622 27.7182 7.87155 30.6526C9.01866 33.2698 11.1942 35.0939 13.528 36.6404C17.2462 39.1386 21.7951 41.2006 23.1795 45.8005C23.3773 46.4349 24.3266 46.316 24.3266 45.6418C24.3662 39.3765 25.1573 31.6836 29.5479 26.8458C29.983 26.2907 29.1524 25.4183 28.6381 26.0131Z" fill="#010101"/>
<path d="M29.8644 25.8148C25.0386 21.9684 25.7111 14.7513 22.6653 9.7549C20.4502 6.14638 14.0027 4.20333 11.8667 9.00148C9.80979 13.5617 17.3649 17.0116 19.224 12.729C19.936 11.0635 18.6702 8.60494 16.732 8.80321C15.0311 9.00148 14.3587 11.3014 15.9804 12.1341C16.6529 12.491 17.2462 11.46 16.5738 11.1031C16.0991 10.9049 16.376 10.548 17.4044 10.1118C17.9186 10.4687 18.156 10.9842 18.2351 11.6186C18.4329 13.1652 16.7715 13.4427 15.664 13.4031C13.2907 13.3238 11.9853 11.0238 13.2116 8.96182C15.2684 5.51192 20.0151 8.01012 21.6369 10.3894C24.9991 15.4254 23.9706 22.6425 29.0337 26.6872C29.627 27.1234 30.4973 26.2907 29.8644 25.8148Z" fill="#010101"/>
<path d="M19.3822 67.174C17.2462 63.4465 16.0595 59.6397 15.9804 55.3174C15.9409 52.4227 16.4155 49.6073 15.9804 46.7125C15.6244 44.4126 14.3191 42.4695 11.9853 41.954C10.0075 41.5178 7.83199 42.3902 7.00133 44.2936C5.57733 47.5056 8.42532 51.9468 12.0249 50.2021C13.8444 49.29 14.0422 47.1884 12.6578 45.8401C11.2733 44.4522 9.73065 45.4039 9.53287 47.0694C9.45376 47.8228 10.6404 47.8228 10.7195 47.0694C10.8778 45.6418 11.9062 46.6729 12.2622 47.228C12.9742 48.3383 11.5898 49.2107 10.68 49.4486C9.21643 49.8452 8.2671 48.1797 7.95066 47.0297C6.88266 43.0247 12.3809 41.7161 14.2004 44.9677C15.8617 47.8625 14.8333 52.1451 14.8333 55.3174C14.8333 59.7984 16.1782 63.9224 18.3933 67.8085C18.7493 68.443 19.7777 67.8481 19.3822 67.174Z" fill="#010101"/>
<path d="M18.868 67.055C15.5058 66.9757 11.3129 65.4689 9.69117 62.2966C9.13739 61.2656 8.93962 59.9966 8.97917 58.8466C9.05828 54.8416 14.0027 59.1242 11.5503 60.0759C10.8383 60.3535 11.1547 61.5035 11.8667 61.2259C14.0027 60.3932 13.6863 58.0536 12.2227 56.6657C10.7196 55.1985 8.38584 56.1898 7.87162 58.0139C7.27829 60.2345 8.34629 62.8517 9.77028 64.4775C11.9458 66.9757 15.664 68.1654 18.868 68.2447C19.6591 68.2843 19.6591 67.0947 18.868 67.055Z" fill="#010101"/>
<path d="M8.06928 94.0595C11.2733 93.4647 11.9457 90.1734 14.0026 88.151C14.9915 87.1597 16.8901 87.0407 18.1559 87.3579C19.1844 87.5959 19.3426 88.3889 19.1052 89.3406C18.9075 90.1337 18.235 90.5303 17.4835 90.4113C17.0484 90.332 16.1386 89.8165 16.9693 89.2217C17.6021 88.7855 17.0088 87.7545 16.3759 88.1907C14.6355 89.4199 15.5848 91.2837 17.4439 91.6009C19.4217 91.9182 21.2412 89.2613 20.1732 87.5166C19.0261 85.6132 16.2177 85.8907 14.4377 86.5649C11.3128 87.7148 11.1942 92.3147 7.71329 92.9492C7.00129 93.0681 7.31773 94.2181 8.06928 94.0595Z" fill="#010101"/>
<path d="M6.92224 66.8568C6.92224 73.9945 6.92224 81.1323 6.92224 88.27C6.92224 89.0234 8.1089 89.0234 8.1089 88.27C8.1089 81.1323 8.1089 73.9945 8.1089 66.8568C8.1089 66.1034 6.92224 66.1034 6.92224 66.8568Z" fill="#010101"/>
<path d="M9.09766 68.4826C9.09766 75.1445 9.09766 81.846 9.09766 88.5079C9.09766 89.2613 10.2843 89.2613 10.2843 88.5079C10.2843 81.846 10.2843 75.1445 10.2843 68.4826C10.2843 67.6895 9.09766 67.6895 9.09766 68.4826Z" fill="#010101"/>
<path d="M11.5106 69.6722C11.5106 74.8273 11.5106 79.9426 11.5106 85.0977C11.5106 85.8511 12.6973 85.8511 12.6973 85.0977C12.6973 79.9426 12.6973 74.8273 12.6973 69.6722C12.6973 68.9188 11.5106 68.9188 11.5106 69.6722Z" fill="#010101"/>
<path d="M6.28931 33.6267C6.28931 35.8473 6.28931 38.0283 6.28931 40.2489C6.28931 41.0023 7.47597 41.0023 7.47597 40.2489C7.47597 38.0283 7.47597 35.8473 7.47597 33.6267C7.47597 32.8732 6.28931 32.8732 6.28931 33.6267Z" fill="#010101"/>
<path d="M8.70215 35.8473C8.70215 37.1955 8.70215 38.5041 8.70215 39.8523C8.70215 40.6058 9.88881 40.6058 9.88881 39.8523C9.88881 38.5041 9.88881 37.1955 9.88881 35.8473C9.88881 35.0542 8.70215 35.0542 8.70215 35.8473Z" fill="#010101"/>
<path d="M11.3129 37.2352C11.3129 37.9886 11.3129 38.7024 11.3129 39.4558C11.3129 40.2092 12.4995 40.2092 12.4995 39.4558C12.4995 38.7024 12.4995 37.9886 12.4995 37.2352C12.4995 36.4817 11.3129 36.4817 11.3129 37.2352Z" fill="#010101"/>
<path d="M6.09155 9.79456C6.09155 13.2841 6.09155 16.734 6.09155 20.2236C6.09155 20.977 7.27821 20.977 7.27821 20.2236C7.27821 16.734 7.27821 13.2841 7.27821 9.79456C7.27821 9.04114 6.09155 9.04114 6.09155 9.79456Z" fill="#010101"/>
<path d="M8.50439 7.21705C8.50439 10.548 8.50439 13.8789 8.50439 17.2099C8.50439 17.9633 9.69106 17.9633 9.69106 17.2099C9.69106 13.8789 9.69106 10.548 9.69106 7.21705C9.69106 6.42397 8.50439 6.42397 8.50439 7.21705Z" fill="#010101"/>
<path d="M28.48 6.42396C28.48 7.09808 28.48 7.7722 28.48 8.40666C28.48 9.16009 29.6666 9.16009 29.6666 8.40666C29.6666 7.73254 29.6666 7.05842 29.6666 6.42396C29.6666 5.63088 28.48 5.63088 28.48 6.42396Z" fill="#010101"/>
<path d="M26.2648 5.98777C26.2648 7.45497 26.2648 8.92217 26.2648 10.3894C26.2648 11.1428 27.4514 11.1428 27.4514 10.3894C27.4514 8.92217 27.4514 7.45497 27.4514 5.98777C27.4514 5.23434 26.2648 5.23434 26.2648 5.98777Z" fill="#010101"/>
<path d="M23.8915 6.22569C23.8915 7.29635 23.8915 8.36701 23.8915 9.43767C23.8915 10.1911 25.0781 10.1911 25.0781 9.43767C25.0781 8.36701 25.0781 7.29635 25.0781 6.22569C25.0781 5.4326 23.8915 5.4326 23.8915 6.22569Z" fill="#010101"/>
<path d="M24.0496 43.6591C24.1683 41.042 23.575 38.5438 22.6652 36.1249C22.151 34.737 21.5181 32.9922 20.5292 31.8819C18.3537 29.5423 15.7826 31.9215 16.8901 34.618C17.167 35.3318 18.3141 35.0146 18.0372 34.3008C17.879 33.9439 17.7603 33.587 17.7208 33.1905C18.2746 32.9129 18.8283 32.675 19.3821 32.3974C19.659 32.675 19.8963 32.9922 20.0941 33.3094C20.5688 34.0232 20.8457 34.8559 21.2017 35.649C22.3092 38.1472 22.9816 40.8834 22.863 43.6591C22.863 44.4126 24.0496 44.4126 24.0496 43.6591Z" fill="#010101"/>
<path d="M48.6135 64.3189C47.6247 61.3449 45.726 58.2518 42.7989 56.9036C40.386 55.7933 37.1425 57.4984 36.7469 60.1156C36.3909 62.4155 39.0807 64.7551 41.2562 63.8431C43.1549 63.05 43.2736 60.7501 41.5727 59.7587C40.9002 59.3622 40.3069 60.3932 40.9794 60.7897C41.7309 61.2259 41.81 61.8207 41.2167 62.4552C40.4256 63.3276 39.318 62.6931 38.6851 62.0586C36.5096 59.838 39.3971 57.8157 41.5331 57.8157C44.4602 57.8157 46.7149 62.3362 47.4664 64.6362C47.7038 65.3499 48.8509 65.0327 48.6135 64.3189Z" fill="#010101"/>
<path d="M49.2069 64.1206C48.4949 61.8604 47.2687 59.7983 47.0709 57.3794C46.9127 55.595 48.4158 53.414 50.3936 54.2864C51.2242 54.683 51.3825 55.6743 51.4616 56.4278C51.5407 57.657 49.4838 59.1242 49.8398 56.9829C49.9585 56.2295 48.8114 55.9122 48.6927 56.6657C48.4554 58.0536 49.286 60.0363 51.066 59.1639C53.1625 58.0932 53.0042 55.0399 51.4616 53.5727C49.7607 51.9468 46.9127 53.3347 46.2403 55.3174C45.1723 58.4501 47.1896 61.5035 48.0994 64.3982C48.2971 65.1516 49.4442 64.8344 49.2069 64.1206Z" fill="#010101"/>
<path d="M39.0807 69.236C36.9843 67.4912 34.2945 64.7948 31.2487 65.1913C28.8754 65.5085 26.5416 67.8085 27.7678 70.3463C28.7963 72.448 31.3278 73.1221 33.1474 71.6153C34.9274 70.1877 33.8989 68.0067 31.842 68.0464C31.0905 68.0464 31.0905 69.236 31.842 69.236C32.5936 69.236 33.0683 69.6722 32.6332 70.386C32.198 71.2187 31.1696 71.3377 30.3389 71.1791C28.3612 70.7825 28.3216 68.3636 29.4687 67.174C32.0794 64.3982 36.2327 68.4429 38.2105 70.0688C38.8038 70.5843 39.674 69.7515 39.0807 69.236Z" fill="#010101"/>
<path d="M28.3612 93.5836C28.3612 75.66 42.8385 61.1466 60.7175 61.1466C78.5966 61.1466 93.0739 75.66 93.0739 93.5836C93.0739 111.507 78.5966 126.021 60.7175 126.021C42.8385 126.021 28.3612 111.507 28.3612 93.5836ZM39.2389 115.116C44.7371 120.628 52.3318 124.038 60.7175 124.038C69.1033 124.038 76.6979 120.628 82.1961 115.116C87.6943 109.604 91.0961 101.99 91.0961 93.5836C91.0961 85.177 87.6943 77.5634 82.1961 72.0515C76.6979 66.5395 69.1033 63.1293 60.7175 63.1293C52.3318 63.1293 44.7371 66.5395 39.2389 72.0515C33.7407 77.5634 30.339 85.177 30.339 93.5836C30.339 101.99 33.7407 109.604 39.2389 115.116Z" fill="#010101"/>
<path d="M60.9944 175.073C60.9944 158.537 60.9944 141.962 60.9944 125.426C60.9944 124.672 59.8077 124.672 59.8077 125.426C59.8077 141.962 59.8077 158.537 59.8077 175.073C59.8077 175.826 60.9944 175.826 60.9944 175.073Z" fill="#010101"/>
<path d="M61.1922 175.231C61.9042 170.909 65.5433 168.094 68.7868 165.516C72.149 162.82 75.3135 160.202 77.1726 156.197C79.8228 150.487 78.9921 139.344 70.6855 139.265C67.4024 139.265 64.0006 141.922 62.9326 144.975C61.9833 147.791 63.2095 151.122 65.3851 152.985C67.7188 155.008 70.6459 154.294 72.7028 152.232C74.7597 150.17 74.3246 146.561 72.149 144.737C69.9735 142.953 66.4926 144.222 66.6508 147.156C66.7695 149.298 69.0242 151.042 70.3691 148.703C70.7646 148.029 69.7362 147.434 69.3406 148.108C68.3913 149.813 67.6002 146.918 67.9957 146.006C68.9055 143.865 71.7139 145.61 72.4259 146.918C74.285 150.249 70.3295 154.215 67.0068 152.629C64.2775 151.32 63.3282 147.592 64.238 144.896C65.4246 141.446 70.2504 139.463 73.4148 141.129C76.6188 142.755 77.5681 146.918 77.489 150.21C77.3704 154.413 75.1948 158.22 72.2677 161.075C67.9562 165.239 61.1922 168.411 60.0847 174.914C59.9264 175.668 61.0735 175.985 61.1922 175.231Z" fill="#010101"/>
<path d="M72.2677 123.285L73.3357 122.769L89.7116 156.792L88.6436 157.308L72.2677 123.285Z" fill="#010101"/>
<path d="M81.7214 117.217L82.6312 116.424L101.618 138.631L100.708 139.424L81.7214 117.217Z" fill="#010101"/>
<path d="M88.2877 108.93L88.8415 107.899L106.444 117.495L105.85 118.526L88.2877 108.93Z" fill="#010101"/>
<path d="M89.5534 157.03C91.2543 152.51 95.4867 146.76 93.3507 141.724C92.1245 138.789 88.3272 136.569 85.2023 138.036C82.3939 139.384 83.9761 144.936 86.9032 145.015C89.5534 145.094 90.8983 140.772 87.7734 140.256C87.0218 140.138 86.7054 141.288 87.457 141.406C88.7623 141.605 88.6436 142.517 87.8525 143.35C86.4285 144.817 85.3605 142.596 85.0441 141.446C84.253 138.194 88.0503 138.591 89.8698 139.503C96.3965 142.794 90.0676 152.311 88.4063 156.713C88.1294 157.427 89.2765 157.704 89.5534 157.03Z" fill="#010101"/>
<path d="M101.539 138.67C100.312 134.269 103.952 129.669 101.974 125.307C100.589 122.293 97.3854 120.628 94.5374 122.928C92.2036 124.831 93.5089 127.964 96.08 128.757C98.8885 129.59 100.273 125.584 97.504 124.434C96.792 124.157 96.4756 125.307 97.1876 125.584C98.8885 126.298 97.504 127.528 96.6338 127.607C95.8822 127.686 95.1307 126.972 94.7351 126.417C94.1814 125.624 94.5769 124.633 95.1307 123.998C96.9898 121.857 99.6005 123.483 100.708 125.426C103.042 129.51 99.1258 134.626 100.352 138.988C100.589 139.741 101.736 139.424 101.539 138.67Z" fill="#010101"/>
<path d="M106.325 117.812C106.088 113.768 107.709 109.406 105.217 105.757C103.279 102.982 99.2049 101.713 97.1085 104.964C95.5263 107.423 97.8996 111.468 100.787 111.031C101.776 110.873 102.725 109.762 102.804 108.771C102.923 107.423 102.053 106.669 100.906 106.194C100.194 105.916 99.8774 107.066 100.589 107.344C101.776 107.819 101.934 108.969 100.906 109.683C99.7587 110.516 98.6512 108.969 98.1765 108.137C97.4249 106.828 97.9392 105.321 99.1258 104.528C100.629 103.497 102.409 104.568 103.556 105.599C106.918 108.613 104.98 113.887 105.178 117.773C105.217 118.566 106.404 118.566 106.325 117.812Z" fill="#010101"/>
<path d="M72.1095 170.75C75.4321 165.675 80.7721 161.63 81.5632 155.246C81.1677 155.285 80.7721 155.365 80.4161 155.404C81.9983 162.066 95.2889 167.142 91.2543 174.914C89.7512 177.809 86.2703 180.228 83.3432 177.809C81.2072 176.064 80.2975 171.504 82.7894 169.68C84.3717 168.49 86.8637 169.323 87.8921 170.869C88.6041 171.94 88.2876 173.368 87.4965 174.28C86.9823 174.874 86.1912 175.112 85.4792 174.954C84.9254 174.756 84.609 174.359 84.4903 173.804C84.0948 172.852 84.5694 172.376 85.9143 172.376C86.3494 173.011 87.3779 172.416 86.9428 171.781C85.0441 169.125 82.2357 172.218 83.541 174.676C84.8859 177.135 88.3272 176.342 89.1974 173.843C91.017 168.649 82.7894 165.516 80.693 170.552C79.3481 173.804 80.7326 177.849 83.7783 179.554C87.0614 181.417 90.3841 178.523 92.1245 175.905C95.8823 170.235 89.3556 164.683 85.7561 161.035C84.0948 159.37 82.1566 157.506 81.6028 155.127C81.4446 154.413 80.5348 154.651 80.4557 155.285C79.7041 161.352 74.3246 165.358 71.1602 170.195C70.6855 170.79 71.7139 171.385 72.1095 170.75Z" fill="#010101"/>
<path d="M71.5953 171.068C77.2517 170.83 74.918 181.774 68.9056 178.642C67.3629 177.809 66.6905 176.143 67.5211 174.597C67.9958 173.685 68.9847 172.852 69.934 173.606C70.4482 174.002 70.7251 174.676 70.8833 175.311C71.1602 176.461 69.7758 177.135 69.578 175.509C69.4989 174.756 68.2727 174.756 68.3913 175.509C68.51 176.381 68.5891 177.333 69.5384 177.571C70.1318 177.73 70.7647 177.69 71.3184 177.373C72.426 176.778 72.1887 175.112 71.7931 174.2C70.0922 170.394 65.7411 172.773 65.9389 176.381C66.0576 178.483 68.154 179.911 70.0131 180.347C72.07 180.823 73.9686 179.712 75.0762 178.047C77.1726 174.914 75.8673 169.759 71.5953 169.918C70.8438 169.918 70.8438 171.107 71.5953 171.068Z" fill="#010101"/>
<path d="M92.5992 161.075C97.2272 155.999 98.137 148.029 98.1765 141.446C97.781 141.486 97.3854 141.565 97.0294 141.605C99.7588 150.804 114.434 150.963 112.891 162.225C112.377 166.071 108.857 170.116 104.703 169.085C101.934 168.411 100.55 164.763 101.104 162.225C101.816 158.934 105.969 159.33 107.353 161.868C108.263 163.573 107.156 165.714 105.099 165.437C103.714 165.239 103.517 162.74 105.415 163.454C106.127 163.732 106.444 162.582 105.732 162.304C103.556 161.511 102.251 163.335 103.161 165.318C104.229 167.618 107.947 166.587 108.659 164.525C109.489 162.066 107.63 158.894 104.98 158.656C102.29 158.418 100.075 159.925 99.7983 162.701C99.561 165.516 100.906 168.332 103.319 169.799C106.879 171.9 110.795 169.045 112.654 166.111C114.394 163.414 114.711 159.37 113.405 156.435C112.258 153.818 110.083 151.994 107.749 150.448C104.031 147.949 99.4819 145.887 98.0974 141.287C97.8997 140.653 96.9503 140.772 96.9503 141.446C96.9108 147.672 96.1197 155.404 91.729 160.242C91.2543 160.797 92.085 161.63 92.5992 161.075Z" fill="#010101"/>
<path d="M91.3335 161.273C96.1592 165.12 95.5263 172.337 98.5326 177.333C100.748 180.942 107.195 182.885 109.331 178.086C111.388 173.526 103.833 170.076 101.974 174.359C101.262 176.024 102.528 178.483 104.466 178.285C106.127 178.086 106.839 175.787 105.217 174.954C104.545 174.597 103.952 175.628 104.624 175.985C105.099 176.183 104.822 176.54 103.793 176.976C103.279 176.619 103.042 176.104 102.963 175.469C102.765 173.923 104.426 173.645 105.534 173.685C107.907 173.764 109.213 176.064 107.986 178.126C105.929 181.576 101.183 179.078 99.561 176.699C96.1988 171.663 97.2272 164.445 92.1641 160.401C91.6103 159.965 90.7401 160.797 91.3335 161.273Z" fill="#010101"/>
<path d="M101.855 119.914C103.991 123.641 105.178 127.448 105.257 131.771C105.297 134.665 104.822 137.481 105.257 140.375C105.613 142.675 106.918 144.618 109.252 145.134C111.23 145.57 113.405 144.698 114.236 142.794C115.66 139.582 112.812 135.141 109.213 136.886C107.393 137.798 107.195 139.9 108.58 141.248C109.964 142.636 111.507 141.684 111.705 140.019C111.784 139.265 110.597 139.265 110.518 140.019C110.36 141.446 109.331 140.415 108.975 139.86C108.263 138.75 109.648 137.877 110.557 137.639C112.021 137.243 112.97 138.908 113.287 140.058C114.355 144.063 108.857 145.372 107.037 142.12C105.376 139.225 106.404 134.943 106.404 131.771C106.404 127.29 105.059 123.166 102.844 119.279C102.488 118.645 101.46 119.24 101.855 119.914Z" fill="#010101"/>
<path d="M102.369 119.993C105.732 120.073 109.924 121.579 111.586 124.752C112.14 125.783 112.337 127.052 112.298 128.202C112.219 132.207 107.274 127.924 109.727 126.972C110.439 126.695 110.122 125.545 109.41 125.822C107.274 126.655 107.591 128.995 109.054 130.383C110.557 131.85 112.891 130.858 113.405 129.034C113.999 126.814 112.931 124.197 111.507 122.571C109.331 120.073 105.613 118.883 102.409 118.804C101.578 118.804 101.578 119.993 102.369 119.993Z" fill="#010101"/>
<path d="M92.3619 94.1784C99.2841 94.1784 106.206 94.1784 113.128 94.1784C113.88 94.1784 113.88 92.9888 113.128 92.9888C106.206 92.9888 99.2841 92.9888 92.3619 92.9888C91.6103 92.9888 91.6103 94.1784 92.3619 94.1784Z" fill="#010101"/>
<path d="M8.50434 94.1784C15.4265 94.1784 22.3487 94.1784 29.2709 94.1784C30.0225 94.1784 30.0225 92.9888 29.2709 92.9888C22.3487 92.9888 15.4265 92.9888 8.50434 92.9888C7.71323 92.9888 7.71323 94.1784 8.50434 94.1784Z" fill="#010101"/>
<path d="M113.168 93.0285C109.964 93.6233 109.292 96.9146 107.235 98.9369C106.246 99.9283 104.347 100.047 103.081 99.73C102.053 99.4921 101.895 98.699 102.132 97.7473C102.33 96.9542 103.002 96.5577 103.754 96.6766C104.189 96.756 105.099 97.2715 104.268 97.8663C103.635 98.3025 104.229 99.3335 104.861 98.8973C106.602 97.668 105.653 95.8043 103.793 95.487C101.816 95.1698 99.9961 97.8266 101.064 99.5714C102.211 101.475 105.02 101.197 106.8 100.523C109.925 99.3731 110.043 94.7733 113.524 94.1388C114.236 94.0198 113.92 92.8699 113.168 93.0285Z" fill="#010101"/>
<path d="M114.315 120.231C114.315 113.093 114.315 105.956 114.315 98.818C114.315 98.0645 113.128 98.0645 113.128 98.818C113.128 105.956 113.128 113.093 113.128 120.231C113.128 120.985 114.315 120.985 114.315 120.231Z" fill="#010101"/>
<path d="M112.14 118.605C112.14 111.943 112.14 105.242 112.14 98.5801C112.14 97.8266 110.953 97.8266 110.953 98.5801C110.953 105.242 110.953 111.943 110.953 118.605C110.953 119.398 112.14 119.398 112.14 118.605Z" fill="#010101"/>
<path d="M109.727 117.416C109.727 112.261 109.727 107.145 109.727 101.99C109.727 101.237 108.54 101.237 108.54 101.99C108.54 107.145 108.54 112.261 108.54 117.416C108.54 118.169 109.727 118.169 109.727 117.416Z" fill="#010101"/>
<path d="M114.948 153.461C114.948 151.241 114.948 149.06 114.948 146.839C114.948 146.086 113.761 146.086 113.761 146.839C113.761 149.06 113.761 151.241 113.761 153.461C113.761 154.215 114.948 154.215 114.948 153.461Z" fill="#010101"/>
<path d="M112.535 151.241C112.535 149.892 112.535 148.584 112.535 147.236C112.535 146.482 111.349 146.482 111.349 147.236C111.349 148.584 111.349 149.892 111.349 151.241C111.349 152.034 112.535 152.034 112.535 151.241Z" fill="#010101"/>
<path d="M109.924 149.853C109.924 149.099 109.924 148.386 109.924 147.632C109.924 146.879 108.738 146.879 108.738 147.632C108.738 148.386 108.738 149.099 108.738 149.853C108.738 150.606 109.924 150.606 109.924 149.853Z" fill="#010101"/>
<path d="M115.146 177.254C115.146 173.764 115.146 170.314 115.146 166.825C115.146 166.071 113.959 166.071 113.959 166.825C113.959 170.314 113.959 173.764 113.959 177.254C113.959 178.047 115.146 178.047 115.146 177.254Z" fill="#010101"/>
<path d="M112.733 179.871C112.733 176.54 112.733 173.209 112.733 169.878C112.733 169.125 111.546 169.125 111.546 169.878C111.546 173.209 111.546 176.54 111.546 179.871C111.546 180.624 112.733 180.624 112.733 179.871Z" fill="#010101"/>
<path d="M92.7575 180.664C92.7575 179.99 92.7575 179.316 92.7575 178.681C92.7575 177.928 91.5708 177.928 91.5708 178.681C91.5708 179.355 91.5708 180.03 91.5708 180.664C91.5708 181.457 92.7575 181.457 92.7575 180.664Z" fill="#010101"/>
<path d="M94.9725 181.061C94.9725 179.593 94.9725 178.126 94.9725 176.659C94.9725 175.905 93.7859 175.905 93.7859 176.659C93.7859 178.126 93.7859 179.593 93.7859 181.061C93.7859 181.854 94.9725 181.854 94.9725 181.061Z" fill="#010101"/>
<path d="M97.3458 180.862C97.3458 179.792 97.3458 178.721 97.3458 177.65C97.3458 176.897 96.1592 176.897 96.1592 177.65C96.1592 178.721 96.1592 179.792 96.1592 180.862C96.1592 181.655 97.3458 181.655 97.3458 180.862Z" fill="#010101"/>
<path d="M97.1481 143.429C97.0295 146.046 97.6228 148.544 98.5326 150.963C99.0468 152.351 99.6797 154.096 100.669 155.206C102.844 157.546 105.415 155.166 104.308 152.47C104.031 151.756 102.884 152.073 103.161 152.787C103.319 153.144 103.437 153.501 103.477 153.897C102.923 154.175 102.369 154.413 101.816 154.691C101.539 154.413 101.301 154.096 101.104 153.779C100.629 153.065 100.352 152.232 99.9961 151.439C98.8886 148.941 98.2161 146.205 98.3348 143.429C98.3743 142.675 97.1877 142.675 97.1481 143.429Z" fill="#010101"/>
<path d="M72.6237 122.769C73.6126 125.743 75.5112 128.836 78.4383 130.184C80.8512 131.295 84.0948 129.59 84.4903 126.972C84.8463 124.672 82.1565 122.333 79.981 123.245C78.0823 124.038 77.9637 126.338 79.6646 127.329C80.337 127.726 80.9303 126.695 80.2579 126.298C79.5063 125.862 79.4272 125.267 80.0206 124.633C80.8117 123.76 81.9192 124.395 82.5521 125.029C84.7276 127.25 81.8401 129.272 79.7041 129.272C76.777 129.272 74.5224 124.752 73.7708 122.452C73.5335 121.738 72.3864 122.055 72.6237 122.769Z" fill="#010101"/>
<path d="M72.0304 122.967C72.7424 125.228 73.9686 127.29 74.1664 129.709C74.3246 131.493 72.8215 133.674 70.8438 132.802C70.0131 132.405 69.8549 131.414 69.7758 130.66C69.6966 129.431 71.7535 127.964 71.3975 130.105C71.2789 130.858 72.426 131.176 72.5446 130.422C72.782 129.034 71.9513 127.052 70.1713 127.924C68.0749 128.995 68.2331 132.048 69.7758 133.515C71.4766 135.141 74.3246 133.753 74.9971 131.771C76.0651 128.638 74.0477 125.584 73.138 122.69C72.9402 121.936 71.7931 122.254 72.0304 122.967Z" fill="#010101"/>
<path d="M82.1565 117.852C84.253 119.597 86.9427 122.293 89.9885 121.897C92.3618 121.579 94.6956 119.279 93.4694 116.742C92.4409 114.64 89.9094 113.966 88.0899 115.473C86.3099 116.9 87.3383 119.081 89.3952 119.042C90.1467 119.042 90.1467 117.852 89.3952 117.852C88.6436 117.852 88.169 117.416 88.6041 116.702C89.0392 115.869 90.0676 115.75 90.8983 115.909C92.8761 116.305 92.9156 118.724 91.7685 119.914C89.1578 122.69 85.0045 118.645 83.0268 117.019C82.4334 116.504 81.5632 117.336 82.1565 117.852Z" fill="#010101"/>
<path d="M61.1922 174.914C60.1242 168.49 53.3602 165.12 49.0091 161.075C44.0647 156.475 40.5838 145.451 47.862 141.169C51.1056 139.225 55.694 141.763 57.0389 144.936C58.186 147.672 56.8016 151.241 54.27 152.668C52.6878 153.541 50.9869 152.866 49.7607 151.796C48.2971 150.527 48.0994 148.703 48.8509 146.958C49.5629 145.372 52.1736 144.222 53.2811 146.046C53.8349 146.958 52.846 149.734 51.9362 148.148C51.5407 147.474 50.5122 148.068 50.9078 148.742C52.134 150.923 54.1118 149.615 54.5865 147.632C55.2589 144.856 52.4109 143.389 50.0376 144.222C47.3478 145.174 46.6754 148.782 47.7038 151.122C48.8905 153.818 52.3318 154.889 54.8633 153.699C57.474 152.47 58.7793 149.099 58.5816 146.363C58.3442 142.913 55.1402 140.336 51.9758 139.503C48.8905 138.67 46.082 140.415 44.3812 142.913C42.1265 146.205 42.2452 150.685 43.3132 154.373C44.6976 158.973 48.0203 162.027 51.6198 164.921C55.0611 167.697 59.2144 170.592 60.0055 175.271C60.1638 175.985 61.3109 175.668 61.1922 174.914Z" fill="#010101"/>
<path d="M31.5256 156.792L47.9016 122.769L48.9696 123.285L32.5936 157.308L31.5256 156.792Z" fill="#010101"/>
<path d="M19.6194 138.631L38.606 116.424L39.5158 117.217L20.5292 139.424L19.6194 138.631Z" fill="#010101"/>
<path d="M14.7938 117.495L32.3564 107.899L32.9498 108.93L15.3872 118.526L14.7938 117.495Z" fill="#010101"/>
<path d="M32.831 156.713C31.0906 152.153 25.1177 143.468 31.051 139.662C32.6728 138.631 36.2328 137.957 36.2724 140.772C36.2724 142.081 35.323 144.46 33.7013 143.587C32.6333 142.993 32.4355 141.644 33.8199 141.406C34.5715 141.287 34.255 140.138 33.5035 140.256C30.4973 140.732 31.5653 144.658 34.0968 144.975C37.1426 145.372 38.7643 139.741 36.2724 138.155C33.4244 136.37 29.5084 138.551 28.1239 141.208C25.4737 146.244 29.983 152.43 31.7235 157.03C31.9608 157.704 33.1079 157.427 32.831 156.713Z" fill="#010101"/>
<path d="M20.8457 138.988C22.1115 134.467 18.512 129.827 20.4897 125.426C21.4391 123.285 23.8915 122.214 25.8297 123.8C26.5022 124.355 26.8582 125.148 26.6604 126.021C26.5417 126.615 25.9879 127.052 25.5528 127.369C24.1684 128.36 22.1511 126.417 24.0102 125.664C24.7222 125.386 24.4057 124.236 23.6937 124.514C20.9644 125.624 22.1511 129.153 24.9595 128.836C28.0448 128.519 28.5986 124.871 26.6604 123.007C24.1684 120.628 20.9248 122.372 19.4613 124.871C16.9693 129.233 20.9644 134.229 19.6986 138.75C19.5008 139.424 20.648 139.741 20.8457 138.988Z" fill="#010101"/>
<path d="M16.0596 117.812C16.2969 113.926 14.5565 109.366 17.2858 106.075C18.156 105.004 19.3427 104.29 20.6876 104.211C22.428 104.132 23.5356 105.757 23.3378 107.344C23.1796 108.494 22.0325 110.119 20.7271 109.921C19.224 109.683 19.3822 107.899 20.6085 107.383C21.3205 107.106 21.004 105.956 20.292 106.233C18.2351 107.066 17.5231 110.119 20.1338 110.952C23.0213 111.904 25.4342 107.859 24.2871 105.361C22.5071 101.554 18.1956 103.061 16.0991 105.638C13.3303 109.009 15.1103 113.887 14.8729 117.812C14.8334 118.566 16.02 118.566 16.0596 117.812Z" fill="#010101"/>
<path d="M50.1562 170.156C46.9918 165.318 41.6123 161.273 40.8607 155.246C40.7816 154.611 39.8718 154.373 39.7136 155.087C39.0016 158.061 36.1932 160.361 34.1363 162.423C32.0003 164.564 29.7456 166.825 28.5985 169.68C26.2252 175.549 33.8989 183.321 39.1203 178.285C41.4145 176.064 41.8891 171.861 39.9114 169.323C38.4083 167.38 35.4021 167.657 33.5825 168.887C31.4861 170.354 31.3278 173.169 32.9496 175.033C33.7407 175.945 35.0065 176.223 36.1536 175.985C37.5776 175.707 38.0127 174.161 38.1314 172.931C38.4083 170.592 35.5603 170.037 34.3736 171.663C33.9385 172.297 34.9669 172.892 35.4021 172.257C35.9163 172.495 36.4305 172.694 36.9447 172.931C36.9447 173.487 36.7469 174.002 36.4305 174.478C35.8767 175.192 34.9274 174.914 34.2945 174.597C33.0683 173.962 32.7518 172.218 33.2661 171.068C34.0572 169.244 36.5887 168.649 38.25 169.442C41.1771 170.869 39.9509 175.549 38.2896 177.412C35.5998 180.466 31.9607 177.809 30.2203 175.192C25.3154 167.737 39.3576 161.709 40.8607 155.325C40.4651 155.285 40.0696 155.206 39.7136 155.166C40.5047 161.551 45.8447 165.595 49.1673 170.671C49.5233 171.385 50.5518 170.79 50.1562 170.156Z" fill="#010101"/>
<path d="M49.6421 169.878C45.3305 169.719 44.3416 174.478 45.9634 177.69C46.8336 179.435 48.8114 180.624 50.7892 180.347C52.8065 180.069 55.1403 178.562 55.2589 176.302C55.4567 172.852 51.3825 170.314 49.5234 173.923C49.0092 174.914 48.8114 176.421 49.7607 177.214C50.1958 177.571 50.8287 177.65 51.3825 177.531C52.5296 177.333 52.6483 176.5 52.8065 175.43C52.9252 174.676 51.699 174.676 51.6198 175.43C51.4221 176.778 50.275 176.58 50.275 175.469C50.275 174.716 50.7496 174.002 51.2638 173.526C52.055 172.773 52.9252 173.487 53.4789 174.161C54.7447 175.826 53.8745 177.571 52.2923 178.562C46.715 182.092 43.6297 170.75 49.6025 170.988C50.3936 171.107 50.3936 169.918 49.6421 169.878Z" fill="#010101"/>
<path d="M29.4688 160.242C25.0781 155.404 24.287 147.672 24.2474 141.446C24.2474 140.772 23.2586 140.653 23.1003 141.287C21.2412 147.513 13.8839 149.139 9.77016 153.461C4.98396 158.458 6.76395 167.816 13.4093 170.195C16.4946 171.306 19.6986 169.283 20.8852 166.389C21.7555 164.208 21.9137 160.956 19.7381 159.409C17.3252 157.704 14.2399 158.735 12.895 161.234C11.5106 163.771 13.1324 166.587 16.0199 166.626C19.2635 166.666 19.1844 160.916 15.5453 162.304C14.8333 162.582 15.1497 163.732 15.8617 163.454C17.4044 162.899 17.7208 164.525 16.5737 165.278C14.7937 166.507 13.3302 163.93 13.6861 162.423C14.5168 159.053 19.2239 158.973 20.1732 162.225C20.8852 164.683 19.4217 167.538 17.3252 168.768C13.0928 171.306 9.01861 165.794 8.38573 162.185C6.48707 151.122 21.5577 150.606 24.2474 141.565C23.8519 141.525 23.4563 141.446 23.1003 141.406C23.1399 147.989 24.0497 155.96 28.6777 161.035C29.1523 161.63 29.983 160.797 29.4688 160.242Z" fill="#010101"/>
<path d="M29.0337 160.44C24.208 164.287 24.6826 171.266 21.8742 176.342C20.2524 179.236 16.376 181.1 13.6071 178.602C11.8271 177.016 12.9347 174.478 14.952 173.843C16.02 173.526 17.3649 173.606 18.0373 174.557C18.3142 175.192 18.3142 175.787 17.9582 176.381C17.1275 178.126 17.1275 175.707 16.5738 175.985C17.2462 175.628 16.6529 174.637 15.9804 174.954C14.3982 175.747 15.0311 177.809 16.5738 178.245C18.6702 178.84 19.6195 176.064 19.3031 174.478C18.8284 172.257 15.8618 172.297 14.2004 172.812C11.9458 173.487 11.1151 175.826 11.7876 177.928C12.4204 179.871 14.5169 180.743 16.376 180.902C18.868 181.14 21.004 179.593 22.428 177.65C26.0671 172.733 24.8408 165.278 29.9039 161.233C30.4973 160.797 29.627 159.965 29.0337 160.44Z" fill="#010101"/>
<path d="M18.3537 119.319C16.2177 123.047 14.9915 126.893 14.7937 131.176C14.6751 134.626 15.5453 138.234 14.3982 141.605C13.1324 145.332 7.23864 144.579 7.83197 140.375C7.99019 139.107 8.86041 137.758 10.2053 137.639C11.1942 137.56 12.4995 138.432 12.3413 139.503C12.2226 140.217 10.8382 141.565 10.6404 140.019C10.5613 139.265 9.37463 139.265 9.45374 140.019C10.0075 144.46 16.0991 139.543 12.3413 137.163C8.70219 134.824 5.69598 139.225 6.88264 142.675C7.59464 144.698 9.80974 145.412 11.7875 145.174C14.1213 144.896 15.3871 142.913 15.8617 140.772C16.4946 138.076 16.0199 135.181 15.9408 132.405C15.8222 127.884 17.1275 123.8 19.3426 119.874C19.7777 119.24 18.7493 118.645 18.3537 119.319Z" fill="#010101"/>
<path d="M18.868 118.804C13.7653 118.923 6.764 122.571 7.832 128.717C8.188 130.779 10.324 131.771 12.104 130.502C13.8049 129.272 13.9235 126.655 11.8666 125.862C11.1547 125.584 10.8382 126.734 11.5502 127.012C13.6862 127.845 9.92843 132.008 9.05821 128.757C8.74177 127.646 9.13733 126.259 9.53288 125.188C10.7591 121.698 15.5849 120.112 18.9075 119.993C19.6591 119.993 19.6591 118.804 18.868 118.804Z" fill="#010101"/>
<path d="M7.75285 94.1784C11.1151 94.8129 11.3524 99.1748 14.3191 100.523C15.8222 101.197 19.0261 101.594 20.0546 99.849C21.1621 98.0249 19.7777 95.4474 17.6021 95.487C15.5848 95.5267 14.675 97.7076 16.3759 98.8973C17.0088 99.3335 17.6021 98.3025 16.9693 97.8663C15.8222 97.0732 17.9186 96.3991 18.6306 96.9542C19.4217 97.5887 19.4217 99.0162 18.591 99.5317C17.4439 100.206 15.4662 99.7697 14.3982 99.1748C12.9742 98.3818 12.2226 96.3594 11.2733 95.0508C10.4426 93.9405 9.41418 93.1871 8.0693 92.9492C7.31774 92.8698 7.0013 94.0198 7.75285 94.1784Z" fill="#010101"/>
<path d="M8.1089 120.231C8.1089 113.093 8.1089 105.956 8.1089 98.818C8.1089 98.0645 6.92224 98.0645 6.92224 98.818C6.92224 105.956 6.92224 113.093 6.92224 120.231C6.92224 120.985 8.1089 120.985 8.1089 120.231Z" fill="#010101"/>
<path d="M10.2843 118.605C10.2843 111.943 10.2843 105.242 10.2843 98.5801C10.2843 97.8266 9.09766 97.8266 9.09766 98.5801C9.09766 105.242 9.09766 111.943 9.09766 118.605C9.09766 119.398 10.2843 119.398 10.2843 118.605Z" fill="#010101"/>
<path d="M12.6973 117.416C12.6973 112.261 12.6973 107.145 12.6973 101.99C12.6973 101.237 11.5106 101.237 11.5106 101.99C11.5106 107.145 11.5106 112.261 11.5106 117.416C11.5106 118.169 12.6973 118.169 12.6973 117.416Z" fill="#010101"/>
<path d="M7.47597 153.461C7.47597 151.241 7.47597 149.06 7.47597 146.839C7.47597 146.086 6.28931 146.086 6.28931 146.839C6.28931 149.06 6.28931 151.241 6.28931 153.461C6.28931 154.215 7.47597 154.215 7.47597 153.461Z" fill="#010101"/>
<path d="M9.88881 151.241C9.88881 149.892 9.88881 148.584 9.88881 147.236C9.88881 146.482 8.70215 146.482 8.70215 147.236C8.70215 148.584 8.70215 149.892 8.70215 151.241C8.70215 152.034 9.88881 152.034 9.88881 151.241Z" fill="#010101"/>
<path d="M12.4995 149.853C12.4995 149.099 12.4995 148.386 12.4995 147.632C12.4995 146.879 11.3129 146.879 11.3129 147.632C11.3129 148.386 11.3129 149.099 11.3129 149.853C11.3129 150.606 12.4995 150.606 12.4995 149.853Z" fill="#010101"/>
<path d="M7.27821 177.254C7.27821 173.764 7.27821 170.314 7.27821 166.825C7.27821 166.071 6.09155 166.071 6.09155 166.825C6.09155 170.314 6.09155 173.764 6.09155 177.254C6.09155 178.047 7.27821 178.047 7.27821 177.254Z" fill="#010101"/>
<path d="M9.69106 179.871C9.69106 176.54 9.69106 173.209 9.69106 169.878C9.69106 169.125 8.50439 169.125 8.50439 169.878C8.50439 173.209 8.50439 176.54 8.50439 179.871C8.50439 180.624 9.69106 180.624 9.69106 179.871Z" fill="#010101"/>
<path d="M29.6666 180.664C29.6666 179.99 29.6666 179.316 29.6666 178.681C29.6666 177.928 28.48 177.928 28.48 178.681C28.48 179.355 28.48 180.03 28.48 180.664C28.48 181.457 29.6666 181.457 29.6666 180.664Z" fill="#010101"/>
<path d="M27.4514 181.061C27.4514 179.593 27.4514 178.126 27.4514 176.659C27.4514 175.905 26.2648 175.905 26.2648 176.659C26.2648 178.126 26.2648 179.593 26.2648 181.061C26.2648 181.854 27.4514 181.854 27.4514 181.061Z" fill="#010101"/>
<path d="M25.0781 180.862C25.0781 179.792 25.0781 178.721 25.0781 177.65C25.0781 176.897 23.8915 176.897 23.8915 177.65C23.8915 178.721 23.8915 179.792 23.8915 180.862C23.8915 181.655 25.0781 181.655 25.0781 180.862Z" fill="#010101"/>
<path d="M22.8631 143.429C22.9818 146.125 22.3489 148.98 21.2018 151.439C20.8853 152.073 20.648 152.748 20.3316 153.382C20.0942 153.858 19.7778 154.294 19.4218 154.691C18.868 154.413 18.3142 154.175 17.7605 153.897C17.8 153.501 17.8791 153.144 18.0769 152.787C18.3538 152.073 17.2067 151.756 16.9298 152.47C15.8222 155.166 18.3933 157.546 20.5689 155.206C21.5973 154.096 22.1511 152.391 22.7049 150.963C23.6542 148.584 24.208 145.967 24.0893 143.429C24.0498 142.675 22.8631 142.675 22.8631 143.429Z" fill="#010101"/>
<path d="M47.4664 122.452C46.6358 125.029 44.5393 128.915 41.5331 129.272C39.7531 129.51 37.5776 128.043 38.0127 126.1C38.25 124.99 39.5949 124.038 40.6629 124.276C41.7309 124.514 41.9287 125.783 40.9794 126.298C40.3069 126.695 40.9002 127.726 41.5727 127.329C43.2736 126.338 43.1549 124.038 41.2562 123.245C39.0807 122.333 36.3909 124.672 36.7469 126.972C37.1425 129.55 40.386 131.255 42.7989 130.184C45.726 128.836 47.6247 125.743 48.6135 122.769C48.8509 122.055 47.7038 121.738 47.4664 122.452Z" fill="#010101"/>
<path d="M48.0597 122.65C47.1895 125.466 45.4095 128.241 46.0424 131.295C46.5171 133.634 49.3255 134.903 51.3033 133.555C53.1624 132.286 52.9646 129.272 51.3033 128.003C49.5629 126.655 48.4553 128.915 48.6531 130.343C48.7717 131.096 49.9189 130.779 49.8002 130.026C49.5629 128.4 50.6704 128.796 51.1451 129.59C51.6593 130.383 51.3824 131.414 50.9868 132.127C49.6815 134.546 47.1895 131.731 47.0313 130.145C46.794 127.686 48.4553 125.188 49.1673 122.928C49.4442 122.254 48.2971 121.936 48.0597 122.65Z" fill="#010101"/>
<path d="M38.2501 116.98C36.1536 118.724 33.6221 121.341 30.6159 120.509C28.4799 119.914 28.0843 117.297 29.8248 116.107C30.6159 115.552 31.6443 115.711 32.3563 116.266C33.1474 116.9 32.9496 117.812 31.8817 117.812C31.1301 117.812 31.1301 119.002 31.8817 119.002C33.7803 119.002 34.8879 117.178 33.4243 115.671C31.763 113.926 29.2314 114.442 27.9657 116.385C26.423 118.724 28.559 121.183 30.7741 121.817C33.899 122.65 36.9052 119.636 39.0807 117.852C39.6741 117.336 38.8038 116.504 38.2501 116.98Z" fill="#010101"/>
</g>
<defs>
<clipPath id="clip0">
<rect width="121" height="188" fill="white"/>
</clipPath>
</defs>
</svg>
